<svg id="Layer_1" data-name="Layer 1" xmlns="http://www.w3.org/2000/svg" viewBox="0 0 360 360"><defs><style>.cls-1{fill:#f0b723;}.cls-2{font-size:12.79px;fill:#e8c8b4;font-family:SpaceGrotesk-Bold, Space Grotesk;font-weight:700;letter-spacing:0.02em;}.cls-3{letter-spacing:-0.01em;}</style></defs><title>tradit mockup svg</title><polygon class="cls-1" points="215.08 170.95 215.08 181.34 219.22 181.34 219.22 183.49 208.26 183.49 208.26 181.34 212.4 181.34 212.4 170.95 215.08 170.95"/><polygon class="cls-1" points="144.92 177.35 144.92 166.96 140.78 166.96 140.78 164.81 151.74 164.81 151.74 166.96 147.6 166.96 147.6 177.35 144.92 177.35"/><polygon class="cls-1" points="212.4 170.95 212.4 160.1 147.74 160.1 147.74 162.77 140.99 158.46 147.39 154.97 147.5 157.23 215 157.23 215 170.95 212.4 170.95"/><polygon class="cls-1" points="147.6 177.33 147.6 188.18 212.47 188.18 212.47 185.51 219.22 189.82 212.82 193.31 212.7 191.05 144.87 191.05 144.87 177.33 147.6 177.33"/><text class="cls-2" transform="translate(154.69 177.82) scale(1.13 1)">TRADI<tspan class="cls-3" x="37.19" y="0">T</tspan></text></svg>