<svg id="Layer_1" data-name="Layer 1" xmlns="http://www.w3.org/2000/svg" viewBox="0 0 360 360"><defs><style>.cls-1{fill:#192033;}.cls-2{font-size:12.79px;fill:#3c153b;font-family:SpaceGrotesk-Bold, Space Grotesk;font-weight:700;letter-spacing:0.02em;}.cls-3{letter-spacing:-0.01em;}</style></defs><title>tradit mockup svg</title><polygon class="cls-1" points="210.68 174.16 210.68 184.54 214.82 184.54 214.82 186.69 203.86 186.69 203.86 184.54 208 184.54 208 174.16 210.68 174.16"/><polygon class="cls-1" points="140.52 180.55 140.52 170.17 136.38 170.17 136.38 168.02 147.34 168.02 147.34 170.17 143.2 170.17 143.2 180.55 140.52 180.55"/><polygon class="cls-1" points="208 174.16 208 163.31 143.34 163.31 143.34 165.98 136.59 161.67 142.99 158.18 143.1 160.44 210.6 160.44 210.6 174.16 208 174.16"/><polygon class="cls-1" points="143.2 180.53 143.2 191.39 208.07 191.39 208.07 188.72 214.82 193.03 208.42 196.52 208.3 194.26 140.47 194.26 140.47 180.53 143.2 180.53"/><text class="cls-2" transform="translate(150.29 181.03) scale(1.13 1)">TRADI<tspan class="cls-3" x="37.19" y="0">T</tspan></text></svg>