<svg id="Layer_1" data-name="Layer 1" xmlns="http://www.w3.org/2000/svg" viewBox="0 0 360 360"><defs><style>.cls-1{fill:#3c153b;}.cls-2{font-size:12.79px;fill:#192033;font-family:SpaceGrotesk-Bold, Space Grotesk;font-weight:700;letter-spacing:0.02em;}.cls-3{letter-spacing:-0.01em;}</style></defs><title>tradit mockup svg</title><polygon class="cls-1" points="234.56 174.16 234.56 184.54 238.7 184.54 238.7 186.69 227.74 186.69 227.74 184.54 231.88 184.54 231.88 174.16 234.56 174.16"/><polygon class="cls-1" points="164.4 180.55 164.4 170.17 160.26 170.17 160.26 168.02 171.22 168.02 171.22 170.17 167.08 170.17 167.08 180.55 164.4 180.55"/><polygon class="cls-1" points="231.88 174.16 231.88 163.31 167.22 163.31 167.22 165.98 160.47 161.67 166.87 158.18 166.99 160.44 234.48 160.44 234.48 174.16 231.88 174.16"/><polygon class="cls-1" points="167.08 180.53 167.08 191.39 231.95 191.39 231.95 188.72 238.7 193.03 232.3 196.52 232.18 194.26 164.36 194.26 164.36 180.53 167.08 180.53"/><text class="cls-2" transform="translate(174.18 181.03) scale(1.13 1)">TRADI<tspan class="cls-3" x="37.19" y="0">T</tspan></text></svg>